{"title":"Percentage 2013 DVDRIP-DTeCH","uid":9387790,"size":1398941034,"categoryP":"video","categoryS":"movies","magnet":"?xt=urn:btih:72dc44bc410cb498c169e564b5f4b4c9183aa36f&amp;dn=Percentage+2013+DVDRIP-DTeCH&amp;tr=udp%3A%2F%2Ftracker.openbittorrent.com%3A80&amp;tr=udp%3A%2F%2Fopen.demonii.com%3A1337&amp;tr=udp%3A%2F%2Ftracker.coppersurfer.tk%3A6969&amp;tr=udp%3A%2F%2Fexodus.desync.com%3A6969","seeders":2,"leechers":1,"uploader":"xxxlavalxxx","files":-1,"time":1387827466,"description":" &lt;a href=&quot;\nhttp://www.imdb.com/title/tt2088869/&quot; rel=&quot;nofollow&quot; target=&quot;_NEW&quot;&gt;\nhttp://www.imdb.com/title/tt2088869/&lt;/a&gt;\n\n\nIn Miami, two hustlers on the run set up a credit fraud operation that soon attracts the attention from the police and the city's top criminals.\n\nDirector: Alex Merkin\nWriters: Cam'Ron Giles, Elya Ottenberg (screenplay)\nStars: Cam'ron, Omar Gooding, Ving Rhames\nGenres: Crime\nCountry: USA\nLanguage: English\n\n\nGeneral\nComplete name                            : Percentage 2013 DVDRIP-DTeCH.avi\nFormat                                   : AVI\nFormat/Info                              : Audio Video Interleave\nFormat profile                           : OpenDML\nFile size                                : 1.30 GiB\nDuration                                 : 1h 22mn\nOverall bit rate                         : 2 255 Kbps\nMovie name                               : Percentage\n\nVideo\nID                                       : 0\nFormat                                   : MPEG-4 Visual\nFormat profile                           : Simple@L1\nFormat settings, BVOP                    : No\nFormat settings, QPel                    : No\nFormat settings, GMC                     : No warppoints\nFormat settings, Matrix                  : Default (H.263)\nCodec ID                                 : DX50\nCodec ID/Hint                            : DivX 5\nDuration                                 : 1h 22mn\nBit rate                                 : 1 800 Kbps\nWidth                                    : 720 pixels\nHeight                                   : 404 pixels\nDisplay aspect ratio                     : 16:9\nFrame rate                               : 29.970 fps\nColor space                              : YUV\nChroma subsampling                       : 4:2:0\nBit depth                                : 8 bits\nScan type                                : Progressive\nCompression mode                         : Lossy\nBits/(Pixel*Frame)                       : 0.206\nStream size                              : 1.04 GiB (80%)\nWriting library                          : Lavc54.79.100\n\nAudio\nID                                       : 1\nFormat                                   : AC-3\nFormat/Info                              : Audio Coding 3\nMode extension                           : CM (complete main)\nFormat settings, Endianness              : Big\nCodec ID                                 : 2000\nDuration                                 : 1h 22mn\nBit rate mode                            : Constant\nBit rate                                 : 448 Kbps\nChannel(s)                               : 6 channels\nChannel positions                        : Front: L C R, Side: L R, LFE\nSampling rate                            : 48.0 KHz\nBit depth                                : 16 bits\nCompression mode                         : Lossy\nStream size                              : 265 MiB (20%)\nAlignment                                : Split accross interleaves\nInterleave, duration                     : 500 ms (14.98 video frames)\nInterleave, preload duration             : 500 ms\n\n\n\nscreens\n &lt;a href=&quot;\nhttp://i.imgur.com/bYDc6xL.jpg&quot; rel=&quot;nofollow&quot; target=&quot;_NEW&quot;&gt;\nhttp://i.imgur.com/bYDc6xL.jpg&lt;/a&gt; &lt;a href=&quot;\nhttp://i.imgur.com/XLCEiGq.jpg&quot; rel=&quot;nofollow&quot; target=&quot;_NEW&quot;&gt;\nhttp://i.imgur.com/XLCEiGq.jpg&lt;/a&gt; &lt;a href=&quot;\nhttp://i.imgur.com/6B81szM.jpg&quot; rel=&quot;nofollow&quot; target=&quot;_NEW&quot;&gt;\nhttp://i.imgur.com/6B81szM.jpg&lt;/a&gt; &lt;a href=&quot;\nhttp://i.imgur.com/vx5R4pP.jpg&quot; rel=&quot;nofollow&quot; target=&quot;_NEW&quot;&gt;\nhttp://i.imgur.com/vx5R4pP.jpg&lt;/a&gt;","torrent":{"xt":"urn:btih:72dc44bc410cb498c169e564b5f4b4c9183aa36f","amp;dn":"Percentage+2013+DVDRIP-DTeCH","amp;tr":["udp%3A%2F%2Ftracker.openbittorrent.com%3A80","udp%3A%2F%2Fopen.demonii.com%3A1337","udp%3A%2F%2Ftracker.coppersurfer.tk%3A6969","udp%3A%2F%2Fexodus.desync.com%3A6969"],"infoHash":"72dc44bc410cb498c169e564b5f4b4c9183aa36f","infoHashBuffer":{"type":"Buffer","data":[114,220,68,188,65,12,180,152,193,105,229,100,181,244,180,201,24,58,163,111]},"announce":[],"urlList":[]}}